<svg width="106" height="106" viewBox="0 0 106 106" fill="none" xmlns="http://www.w3.org/2000/svg">
<path d="M97.0597 84H78.9297V23L100.78 78.54C101.017 79.1461 101.103 79.801 101.03 80.448C100.958 81.0949 100.728 81.7142 100.361 82.2522C99.9948 82.7902 99.5024 83.2306 98.9271 83.5352C98.3517 83.8398 97.7107 83.9993 97.0597 84Z" fill="#E0F2FF"/>
<path d="M77.9297 23H8.92969C6.72055 23 4.92969 24.7909 4.92969 27V84C4.92969 86.2091 6.72055 88 8.92969 88H77.9297C80.1388 88 81.9297 86.2091 81.9297 84V27C81.9297 24.7909 80.1388 23 77.9297 23Z" fill="#0089FF"/>
<path d="M75.9297 27H10.9297C10.3993 27 9.89055 27.2107 9.51547 27.5858C9.1404 27.9609 8.92969 28.4696 8.92969 29V79C8.92969 79.5304 9.1404 80.0391 9.51547 80.4142C9.89055 80.7893 10.3993 81 10.9297 81H68.9297L77.9297 72V29C77.9297 28.4696 77.719 27.9609 77.3439 27.5858C76.9688 27.2107 76.4601 27 75.9297 27Z" fill="white"/>
<path d="M77.9297 72H70.9297C70.3993 72 69.8905 72.2107 69.5155 72.5858C69.1404 72.9609 68.9297 73.4696 68.9297 74V81L77.9297 72Z" fill="#002950"/>
<path d="M10.9297 27H75.9297C76.4601 27 76.9688 27.2107 77.3439 27.5858C77.719 27.9609 77.9297 28.4696 77.9297 29V37H8.92969V29C8.92969 28.4696 9.1404 27.9609 9.51547 27.5858C9.89055 27.2107 10.3993 27 10.9297 27Z" fill="#FFB74D"/>
<path d="M28.8408 33.0003H28.7508C27.3923 32.7586 26.122 32.1613 25.0693 31.2692C24.0165 30.3771 23.219 29.2219 22.7578 27.9214C22.2966 26.6209 22.1881 25.2214 22.4436 23.8653C22.699 22.5093 23.3091 21.2451 24.2119 20.2015C25.1146 19.1579 26.2778 18.3721 27.5829 17.9241C28.888 17.4761 30.2886 17.3818 31.642 17.651C32.9953 17.9201 34.2533 18.5431 35.2877 19.4563C36.3221 20.3696 37.0961 21.5407 37.5308 22.8503C37.5718 22.9763 37.5612 23.1134 37.5012 23.2315C37.4412 23.3496 37.3367 23.4391 37.2108 23.4803C37.0861 23.5217 36.9501 23.5125 36.8322 23.4545C36.7144 23.3964 36.624 23.2944 36.5808 23.1703C36.2033 22.0301 35.5305 21.0103 34.6308 20.2145C33.7312 19.4187 32.6369 18.8754 31.4591 18.6399C30.2814 18.4043 29.0623 18.4849 27.9258 18.8735C26.7893 19.262 25.776 19.9446 24.9889 20.8519C24.2019 21.7591 23.6692 22.8587 23.445 24.0386C23.2208 25.2186 23.3132 26.4369 23.7127 27.5696C24.1122 28.7022 24.8045 29.7089 25.7193 30.4872C26.6341 31.2654 27.7388 31.7875 28.9208 32.0003C29.0534 32.0109 29.1764 32.0737 29.2627 32.175C29.3489 32.2763 29.3914 32.4077 29.3808 32.5403C29.3702 32.6729 29.3074 32.7958 29.2061 32.8821C29.1048 32.9684 28.9734 33.0109 28.8408 33.0003Z" fill="#002950"/>
<path d="M55.8408 33.0003H55.7508C54.3923 32.7586 53.122 32.1613 52.0693 31.2692C51.0165 30.3771 50.219 29.2219 49.7578 27.9214C49.2966 26.6209 49.1881 25.2214 49.4436 23.8653C49.699 22.5093 50.3091 21.2451 51.2119 20.2015C52.1146 19.1579 53.2778 18.3721 54.5829 17.9241C55.888 17.4761 57.2886 17.3818 58.642 17.651C59.9953 17.9201 61.2533 18.5431 62.2877 19.4563C63.3221 20.3696 64.0961 21.5407 64.5308 22.8503C64.5718 22.9763 64.5612 23.1134 64.5012 23.2315C64.4412 23.3496 64.3367 23.4391 64.2108 23.4803C64.1491 23.5022 64.0837 23.5115 64.0184 23.5077C63.953 23.504 63.8891 23.4871 63.8304 23.4582C63.7717 23.4293 63.7193 23.389 63.6765 23.3395C63.6336 23.29 63.6011 23.2325 63.5808 23.1703C63.2033 22.0301 62.5305 21.0103 61.6308 20.2145C60.7312 19.4187 59.6369 18.8754 58.4591 18.6399C57.2814 18.4043 56.0623 18.4849 54.9258 18.8735C53.7893 19.262 52.776 19.9446 51.989 20.8519C51.2019 21.7591 50.6692 22.8587 50.445 24.0386C50.2208 25.2186 50.3132 26.4369 50.7127 27.5696C51.1122 28.7022 51.8045 29.7089 52.7193 30.4872C53.6341 31.2654 54.7388 31.7875 55.9208 32.0003C56.0534 32.0109 56.1764 32.0737 56.2627 32.175C56.3489 32.2763 56.3914 32.4077 56.3808 32.5403C56.3702 32.6729 56.3074 32.7958 56.2061 32.8821C56.1048 32.9684 55.9734 33.0109 55.8408 33.0003Z" fill="#002950"/>
<path d="M46.9297 55H39.9297C39.3774 55 38.9297 55.4477 38.9297 56V61C38.9297 61.5523 39.3774 62 39.9297 62H46.9297C47.482 62 47.9297 61.5523 47.9297 61V56C47.9297 55.4477 47.482 55 46.9297 55Z" fill="#F7F9FB"/>
<path d="M20.9297 44H13.9297C13.3774 44 12.9297 44.4477 12.9297 45V50C12.9297 50.5523 13.3774 51 13.9297 51H20.9297C21.482 51 21.9297 50.5523 21.9297 50V45C21.9297 44.4477 21.482 44 20.9297 44Z" fill="#F7F9FB"/>
<path d="M33.9297 44H26.9297C26.3774 44 25.9297 44.4477 25.9297 45V50C25.9297 50.5523 26.3774 51 26.9297 51H33.9297C34.482 51 34.9297 50.5523 34.9297 50V45C34.9297 44.4477 34.482 44 33.9297 44Z" fill="#F7F9FB"/>
<path d="M46.9297 44H39.9297C39.3774 44 38.9297 44.4477 38.9297 45V50C38.9297 50.5523 39.3774 51 39.9297 51H46.9297C47.482 51 47.9297 50.5523 47.9297 50V45C47.9297 44.4477 47.482 44 46.9297 44Z" fill="#F7F9FB"/>
<path d="M59.9297 44H52.9297C52.3774 44 51.9297 44.4477 51.9297 45V50C51.9297 50.5523 52.3774 51 52.9297 51H59.9297C60.482 51 60.9297 50.5523 60.9297 50V45C60.9297 44.4477 60.482 44 59.9297 44Z" fill="#F7F9FB"/>
<path d="M72.9297 44H65.9297C65.3774 44 64.9297 44.4477 64.9297 45V50C64.9297 50.5523 65.3774 51 65.9297 51H72.9297C73.482 51 73.9297 50.5523 73.9297 50V45C73.9297 44.4477 73.482 44 72.9297 44Z" fill="#F7F9FB"/>
<path d="M20.9297 55H13.9297C13.3774 55 12.9297 55.4477 12.9297 56V61C12.9297 61.5523 13.3774 62 13.9297 62H20.9297C21.482 62 21.9297 61.5523 21.9297 61V56C21.9297 55.4477 21.482 55 20.9297 55Z" fill="#F7F9FB"/>
<path d="M33.9297 55H26.9297C26.3774 55 25.9297 55.4477 25.9297 56V61C25.9297 61.5523 26.3774 62 26.9297 62H33.9297C34.482 62 34.9297 61.5523 34.9297 61V56C34.9297 55.4477 34.482 55 33.9297 55Z" fill="#FFB74D"/>
<path d="M59.9297 55H52.9297C52.3774 55 51.9297 55.4477 51.9297 56V61C51.9297 61.5523 52.3774 62 52.9297 62H59.9297C60.482 62 60.9297 61.5523 60.9297 61V56C60.9297 55.4477 60.482 55 59.9297 55Z" fill="#F7F9FB"/>
<path d="M72.9297 55H65.9297C65.3774 55 64.9297 55.4477 64.9297 56V61C64.9297 61.5523 65.3774 62 65.9297 62H72.9297C73.482 62 73.9297 61.5523 73.9297 61V56C73.9297 55.4477 73.482 55 72.9297 55Z" fill="#F7F9FB"/>
<path d="M20.9297 66H13.9297C13.3774 66 12.9297 66.4477 12.9297 67V72C12.9297 72.5523 13.3774 73 13.9297 73H20.9297C21.482 73 21.9297 72.5523 21.9297 72V67C21.9297 66.4477 21.482 66 20.9297 66Z" fill="#F7F9FB"/>
<path d="M33.9297 66H26.9297C26.3774 66 25.9297 66.4477 25.9297 67V72C25.9297 72.5523 26.3774 73 26.9297 73H33.9297C34.482 73 34.9297 72.5523 34.9297 72V67C34.9297 66.4477 34.482 66 33.9297 66Z" fill="#F7F9FB"/>
<path d="M46.9297 66H39.9297C39.3774 66 38.9297 66.4477 38.9297 67V72C38.9297 72.5523 39.3774 73 39.9297 73H46.9297C47.482 73 47.9297 72.5523 47.9297 72V67C47.9297 66.4477 47.482 66 46.9297 66Z" fill="#F7F9FB"/>
<path d="M30.4297 65.9304C28.1762 65.9278 26.0157 65.0314 24.4222 63.4379C22.8287 61.8444 21.9323 59.684 21.9297 57.4304C21.9297 51.9004 25.5197 48.2604 31.5297 47.6904C31.6889 47.6816 31.8455 47.7334 31.968 47.8355C32.0905 47.9375 32.1697 48.0823 32.1897 48.2404C32.2036 48.3981 32.1547 48.5549 32.0535 48.6766C31.9524 48.7984 31.8072 48.8752 31.6497 48.8904C23.9697 49.6204 23.1397 55.1004 23.1397 57.4304C23.2096 59.3184 24.0088 61.1058 25.3692 62.4168C26.7297 63.7278 28.5454 64.4603 30.4347 64.4603C32.324 64.4603 34.1397 63.7278 35.5002 62.4168C36.8606 61.1058 37.6598 59.3184 37.7297 57.4304C37.7494 56.4256 37.4943 55.4344 36.9921 54.5638C36.4898 53.6933 35.7595 52.9764 34.8797 52.4904C33.8107 51.9613 32.617 51.7356 31.4286 51.8379C30.2402 51.9402 29.1026 52.3665 28.1397 53.0704C28.0744 53.1239 27.9987 53.1631 27.9173 53.1853C27.8359 53.2075 27.7507 53.2123 27.6673 53.1994C27.5839 53.1865 27.5042 53.1561 27.4334 53.1103C27.3625 53.0645 27.3021 53.0042 27.2562 52.9335C27.2102 52.8627 27.1796 52.7831 27.1665 52.6997C27.1534 52.6164 27.158 52.5312 27.1801 52.4498C27.2021 52.3683 27.2411 52.2924 27.2944 52.2271C27.3478 52.1617 27.4143 52.1083 27.4897 52.0704C28.6391 51.2463 29.992 50.7521 31.4019 50.641C32.8119 50.53 34.2254 50.8064 35.4897 51.4404C36.5594 52.03 37.4479 52.9004 38.0594 53.9577C38.6709 55.015 38.9822 56.2192 38.9597 57.4404C38.9571 58.558 38.7344 59.6641 38.3043 60.6955C37.8742 61.727 37.2451 62.6637 36.453 63.4521C35.6609 64.2404 34.7213 64.8651 33.6879 65.2903C32.6544 65.7155 31.5472 65.9331 30.4297 65.9304Z" fill="#0089FF"/>
</svg>
