<svg width="106" height="106" viewBox="0 0 106 106" fill="none" xmlns="http://www.w3.org/2000/svg">
<path d="M53 80.5C68.1878 80.5 80.5 68.1878 80.5 53C80.5 37.8122 68.1878 25.5 53 25.5C37.8122 25.5 25.5 37.8122 25.5 53C25.5 68.1878 37.8122 80.5 53 80.5Z" fill="#FFB74D"/>
<path d="M65.5794 47.6896H61.7694C61.5208 45.4238 60.6368 43.2745 59.2194 41.4896H65.5794C66.1411 41.4518 66.6675 41.202 67.052 40.7908C67.4366 40.3795 67.6505 39.8376 67.6505 39.2746C67.6505 38.7116 67.4366 38.1696 67.052 37.7584C66.6675 37.3471 66.1411 37.0973 65.5794 37.0596H40.5794C40.0176 37.0973 39.4912 37.3471 39.1067 37.7584C38.7222 38.1696 38.5083 38.7116 38.5083 39.2746C38.5083 39.8376 38.7222 40.3795 39.1067 40.7908C39.4912 41.202 40.0176 41.4518 40.5794 41.4896H49.2394C54.2394 41.4896 56.7794 44.4196 57.3194 47.6896H40.5694C39.9832 47.6896 39.4211 47.9224 39.0067 48.3369C38.5922 48.7513 38.3594 49.3134 38.3594 49.8996C38.3594 50.4857 38.5922 51.0478 39.0067 51.4623C39.4211 51.8767 39.9832 52.1096 40.5694 52.1096H56.7794C55.7294 54.6096 53.2994 56.5696 49.2294 56.5696H43.6594C43.2521 56.5708 42.853 56.6841 42.5058 56.8969C42.1585 57.1098 41.8766 57.4141 41.6907 57.7765C41.5049 58.1389 41.4223 58.5455 41.452 58.9517C41.4818 59.3579 41.6227 59.7481 41.8594 60.0796L51.8894 73.9996C52.0923 74.2881 52.362 74.5233 52.6754 74.6852C52.9888 74.8472 53.3366 74.931 53.6894 74.9296C54.0958 74.9265 54.4936 74.8119 54.8394 74.5983C55.1852 74.3847 55.4657 74.0803 55.6504 73.7182C55.835 73.3561 55.9167 72.9503 55.8866 72.5449C55.8564 72.1396 55.7156 71.7503 55.4794 71.4196L47.9994 60.9996H49.2494C56.0894 60.9996 60.2494 56.8896 61.4694 52.1096H65.5994C66.1855 52.1096 66.7476 51.8767 67.1621 51.4623C67.5765 51.0478 67.8094 50.4857 67.8094 49.8996C67.8094 49.3134 67.5765 48.7513 67.1621 48.3369C66.7476 47.9224 66.1855 47.6896 65.5994 47.6896H65.5794Z" fill="white"/>
<path d="M81.6402 24.3596C76.4859 19.2031 70.0352 15.5336 62.9689 13.7383C55.9025 11.943 48.4826 12.0885 41.4921 14.1594C34.5016 16.2304 28.1997 20.15 23.2516 25.5046C18.3034 30.8593 14.8925 37.4503 13.3787 44.5823C11.8649 51.7142 12.3044 59.1226 14.6509 66.0255C16.9973 72.9284 21.1636 79.07 26.7102 83.802C32.2568 88.534 38.9779 91.6809 46.1642 92.9108C53.3506 94.1407 60.7357 93.4079 67.5402 90.7896L90.7902 67.5396C93.5946 60.2268 94.223 52.2588 92.5994 44.5968C90.9758 36.9348 87.1696 29.9064 81.6402 24.3596ZM76.6402 76.6896C71.9549 81.3741 65.9857 84.5642 59.4875 85.8563C52.9893 87.1485 46.2539 86.4848 40.1329 83.9491C34.0118 81.4134 28.7802 77.1196 25.0994 71.6107C21.4186 66.1017 19.454 59.6251 19.454 52.9996C19.454 46.3742 21.4186 39.8975 25.0994 34.3886C28.7802 28.8797 34.0118 24.5859 40.1329 22.0502C46.2539 19.5145 52.9893 18.8508 59.4875 20.1429C65.9857 21.4351 71.9549 24.6251 76.6402 29.3096C82.9182 35.5921 86.449 44.1076 86.4584 52.9893C86.4677 61.8709 82.9549 70.3939 76.6902 76.6896H76.6402Z" fill="#0089FF"/>
<path d="M74.5195 74.52C70.2373 78.8796 67.7403 84.6831 67.5195 90.79L90.7895 67.54C84.6819 67.74 78.8733 70.2319 74.5195 74.52Z" fill="#002950"/>
</svg>
