<svg width="106" height="106" viewBox="0 0 106 106" fill="none" xmlns="http://www.w3.org/2000/svg">
<path d="M64.0023 60.4654L60.4668 64.001L74.3402 77.8744L77.8758 74.3389L64.0023 60.4654Z" fill="#002950"/>
<path d="M92.0007 97.4997C90.542 97.4991 89.1431 96.9201 88.1107 95.8897L72.2207 79.9997C71.189 78.968 70.6094 77.5687 70.6094 76.1097C70.6094 74.6507 71.189 73.2514 72.2207 72.2197C73.2524 71.188 74.6516 70.6084 76.1107 70.6084C77.5697 70.6084 78.969 71.188 80.0007 72.2197L95.8907 88.1097C96.6602 88.8789 97.1843 89.859 97.3967 90.9262C97.6091 91.9933 97.5002 93.0995 97.0837 94.1047C96.6673 95.1099 95.9621 95.969 95.0573 96.5733C94.1525 97.1777 93.0887 97.5 92.0007 97.4997Z" fill="#FFB74D"/>
<path d="M39.07 72.14C57.3341 72.14 72.14 57.3341 72.14 39.07C72.14 20.8059 57.3341 6 39.07 6C20.8059 6 6 20.8059 6 39.07C6 57.3341 20.8059 72.14 39.07 72.14Z" fill="white"/>
<path d="M39.07 75.14C31.936 75.14 24.9623 73.0246 19.0306 69.0611C13.0989 65.0977 8.47573 59.4643 5.74568 52.8734C3.01563 46.2825 2.30132 39.03 3.69309 32.0331C5.08486 25.0362 8.52019 18.6092 13.5647 13.5647C18.6092 8.52019 25.0362 5.08486 32.0331 3.69309C39.03 2.30132 46.2825 3.01563 52.8734 5.74568C59.4643 8.47573 65.0977 13.0989 69.0611 19.0306C73.0246 24.9623 75.14 31.936 75.14 39.07C75.1294 48.6331 71.3258 57.8015 64.5637 64.5637C57.8015 71.3258 48.6331 75.1294 39.07 75.14ZM39.07 9.00002C33.1227 9.00002 27.309 10.7636 22.364 14.0677C17.419 17.3719 13.5649 22.0682 11.289 27.5627C9.01303 33.0573 8.41755 39.1034 9.5778 44.9364C10.7381 50.7694 13.6019 56.1274 17.8073 60.3327C22.0127 64.5381 27.3706 67.402 33.2036 68.5622C39.0367 69.7225 45.0827 69.127 50.5773 66.8511C56.0719 64.5751 60.7682 60.721 64.0723 55.776C67.3764 50.831 69.14 45.0173 69.14 39.07C69.1321 31.0974 65.9614 23.4536 60.3239 17.8161C54.6864 12.1786 47.0426 9.00796 39.07 9.00002Z" fill="#0089FF"/>
<path d="M50.0602 39H51.0602C53.3358 39 55.5181 39.904 57.1272 41.513C58.7363 43.1221 59.6402 45.3044 59.6402 47.58V50.58C59.6402 50.8293 59.5412 51.0684 59.3649 51.2447C59.1886 51.421 58.9495 51.52 58.7002 51.52H42.4302C42.1809 51.52 41.9418 51.421 41.7656 51.2447C41.5893 51.0684 41.4902 50.8293 41.4902 50.58V47.58C41.4902 45.3062 42.3928 43.1253 43.9997 41.5166C45.6066 39.9078 47.7864 39.0027 50.0602 39Z" fill="#FFB74D"/>
<path d="M50.5894 29.29H50.5794C48.6629 29.29 47.1094 30.8436 47.1094 32.76V34.16C47.1094 36.0765 48.6629 37.63 50.5794 37.63H50.5894C52.5058 37.63 54.0594 36.0765 54.0594 34.16V32.76C54.0594 30.8436 52.5058 29.29 50.5894 29.29Z" fill="#FFB74D"/>
<path d="M27.0007 39H28.0007C30.2763 39 32.4586 39.904 34.0677 41.513C35.6767 43.1221 36.5807 45.3044 36.5807 47.58V50.58C36.5807 50.8293 36.4817 51.0684 36.3054 51.2447C36.1291 51.421 35.89 51.52 35.6407 51.52H19.4107C19.2873 51.52 19.165 51.4957 19.051 51.4484C18.9369 51.4012 18.8333 51.332 18.746 51.2447C18.6587 51.1574 18.5895 51.0538 18.5423 50.9397C18.495 50.8257 18.4707 50.7034 18.4707 50.58V47.58C18.4707 45.3131 19.3678 43.1383 20.966 41.5306C22.5643 39.923 24.7338 39.0132 27.0007 39Z" fill="#FFB74D"/>
<path d="M27.5698 29.29H27.5598C25.6434 29.29 24.0898 30.8436 24.0898 32.76V34.16C24.0898 36.0765 25.6434 37.63 27.5598 37.63H27.5698C29.4863 37.63 31.0398 36.0765 31.0398 34.16V32.76C31.0398 30.8436 29.4863 29.29 27.5698 29.29Z" fill="#FFB74D"/>
<path d="M38.4007 36.3898H40.0007C41.3418 36.3832 42.6709 36.6416 43.9118 37.1503C45.1527 37.6589 46.2808 38.4077 47.2314 39.3537C48.182 40.2996 48.9363 41.4241 49.451 42.6625C49.9658 43.9008 50.2307 45.2287 50.2307 46.5698V50.5698C50.2307 50.8191 50.1317 51.0582 49.9554 51.2345C49.7791 51.4107 49.54 51.5098 49.2907 51.5098H29.1607C28.9114 51.5098 28.6723 51.4107 28.496 51.2345C28.3197 51.0582 28.2207 50.8191 28.2207 50.5698V46.5698C28.2207 43.8699 29.2932 41.2805 31.2024 39.3714C33.1115 37.4623 35.7008 36.3898 38.4007 36.3898Z" fill="#0089FF"/>
<path d="M39.2295 24.6201H39.2195C36.8999 24.6201 35.0195 26.5005 35.0195 28.8201V30.5101C35.0195 32.8297 36.8999 34.7101 39.2195 34.7101H39.2295C41.5491 34.7101 43.4295 32.8297 43.4295 30.5101V28.8201C43.4295 26.5005 41.5491 24.6201 39.2295 24.6201Z" fill="#0089FF"/>
</svg>
